<svg width="36" height="36" viewBox="0 0 36 36" fill="none" xmlns="http://www.w3.org/2000/svg">
<path d="M12.75 7.5C12.1533 7.5 11.581 7.73705 11.159 8.15901C10.7371 8.58097 10.5 9.15326 10.5 9.75C10.5 10.3467 10.7371 10.919 11.159 11.341C11.581 11.7629 12.1533 12 12.75 12C13.3467 12 13.919 11.7629 14.341 11.341C14.7629 10.919 15 10.3467 15 9.75C15 9.15326 14.7629 8.58097 14.341 8.15901C13.919 7.73705 13.3467 7.5 12.75 7.5ZM15 3C16.9891 3 18.8968 3.79018 20.3033 5.1967C21.7098 6.60322 22.5 8.51088 22.5 10.5C22.5 13.05 21.225 15.3 19.29 16.65C21.66 16.875 24.33 17.415 27 18.75C31.5 21 33 18 33 18C33 18 31.5 31.5 22.5 31.5H13.5C13.5 31.5 6 31.5 6 24C6 19.5 10.5 18 9 15C3 15 3 9.75 3 9.75C4.5 10.5 6.36 10.5 7.5 9.975C7.63999 8.0808 8.49064 6.30948 9.88149 5.01599C11.2723 3.7225 13.1006 3.0024 15 3Z" fill="#292929"/>
<circle cx="12.75" cy="9.75" r="3.75" fill="#292929"/>
</svg>
