<svg width="108" height="108" viewBox="0 0 108 108" fill="none" xmlns="http://www.w3.org/2000/svg">
<path d="M38.25 22.5C36.4598 22.5 34.7429 23.2112 33.477 24.477C32.2112 25.7429 31.5 27.4598 31.5 29.25C31.5 31.0402 32.2112 32.7571 33.477 34.023C34.7429 35.2888 36.4598 36 38.25 36C40.0402 36 41.7571 35.2888 43.023 34.023C44.2888 32.7571 45 31.0402 45 29.25C45 27.4598 44.2888 25.7429 43.023 24.477C41.7571 23.2112 40.0402 22.5 38.25 22.5ZM45 9C50.9674 9 56.6903 11.3705 60.9099 15.5901C65.1295 19.8097 67.5 25.5326 67.5 31.5C67.5 39.15 63.675 45.9 57.87 49.95C64.98 50.625 72.99 52.245 81 56.25C94.5 63 99 54 99 54C99 54 94.5 94.5 67.5 94.5H40.5C40.5 94.5 18 94.5 18 72C18 58.5 31.5 54 27 45C9 45 9 29.25 9 29.25C13.5 31.5 19.08 31.5 22.5 29.925C22.92 24.2424 25.4719 18.9284 29.6445 15.048C33.817 11.1675 39.3019 9.0072 45 9Z" fill="#C0C0C0"/>
<circle cx="38.25" cy="29.25" r="11.25" fill="#C0C0C0"/>
</svg>
