<svg width="36" height="36" viewBox="0 0 36 36" fill="none" xmlns="http://www.w3.org/2000/svg">
<path d="M18.1125 25.5C18.4375 25.5 18.7063 25.3938 18.9188 25.1813C19.1313 24.9688 19.2375 24.7 19.2375 24.375V17.5875C19.2375 17.2875 19.125 17.0312 18.9 16.8187C18.675 16.6062 18.4125 16.5 18.1125 16.5C17.7875 16.5 17.5188 16.6062 17.3063 16.8187C17.0938 17.0312 16.9875 17.3 16.9875 17.625V24.4125C16.9875 24.7125 17.1 24.9688 17.325 25.1813C17.55 25.3938 17.8125 25.5 18.1125 25.5ZM18 13.725C18.35 13.725 18.6437 13.6125 18.8812 13.3875C19.1187 13.1625 19.2375 12.875 19.2375 12.525C19.2375 12.175 19.1187 11.875 18.8812 11.625C18.6437 11.375 18.35 11.25 18 11.25C17.65 11.25 17.3563 11.375 17.1188 11.625C16.8813 11.875 16.7625 12.175 16.7625 12.525C16.7625 12.875 16.8813 13.1625 17.1188 13.3875C17.3563 13.6125 17.65 13.725 18 13.725ZM18 33C15.875 33 13.9 32.6187 12.075 31.8562C10.25 31.0937 8.6625 30.0375 7.3125 28.6875C5.9625 27.3375 4.90625 25.75 4.14375 23.925C3.38125 22.1 3 20.125 3 18C3 15.9 3.38125 13.9375 4.14375 12.1125C4.90625 10.2875 5.9625 8.7 7.3125 7.35C8.6625 6 10.25 4.9375 12.075 4.1625C13.9 3.3875 15.875 3 18 3C20.1 3 22.0625 3.3875 23.8875 4.1625C25.7125 4.9375 27.3 6 28.65 7.35C30 8.7 31.0625 10.2875 31.8375 12.1125C32.6125 13.9375 33 15.9 33 18C33 20.125 32.6125 22.1 31.8375 23.925C31.0625 25.75 30 27.3375 28.65 28.6875C27.3 30.0375 25.7125 31.0937 23.8875 31.8562C22.0625 32.6187 20.1 33 18 33Z" fill="#292929"/>
</svg>
